<svg width="43" height="34" viewBox="0 0 43 34" fill="none" xmlns="http://www.w3.org/2000/svg">
<path d="M42.5 24.5C42.5 25.648 41.9756 26.7799 40.9492 27.8521C39.9205 28.9268 38.4081 29.9174 36.5007 30.7602C32.6873 32.4452 27.3842 33.5 21.5 33.5C15.6158 33.5 10.3127 32.4452 6.49929 30.7602C4.59193 29.9174 3.0795 28.9268 2.05077 27.8521C1.02444 26.7799 0.5 25.648 0.5 24.5C0.5 23.352 1.02444 22.2201 2.05077 21.1479C3.0795 20.0732 4.59193 19.0826 6.49929 18.2398C10.3127 16.5548 15.6158 15.5 21.5 15.5C27.3842 15.5 32.6873 16.5548 36.5007 18.2398C38.4081 19.0826 39.9205 20.0732 40.9492 21.1479C41.9756 22.2201 42.5 23.352 42.5 24.5Z" stroke="white"/>
<ellipse cx="21.5" cy="24" rx="8.5" ry="3" fill="white"/>
<ellipse cx="21.5" cy="6" rx="5.5" ry="6" fill="white"/>
</svg>
