<svg width="42" height="35" viewBox="0 0 42 35" fill="none" xmlns="http://www.w3.org/2000/svg">
<ellipse cx="20.6761" cy="23.3216" rx="6.22301" ry="2.60965" fill="white"/>
<path fill-rule="evenodd" clip-rule="evenodd" d="M0 4C0 1.79086 1.79086 0 4 0H37.4474C39.6565 0 41.4474 1.79086 41.4474 4V31C41.4474 33.2091 39.6565 35 37.4474 35H4C1.79086 35 0 33.2091 0 31V4ZM39.7457 23.9236C39.7457 28.58 31.2075 32.3547 20.6752 32.3547C10.1428 32.3547 1.60465 28.58 1.60465 23.9236C1.60465 19.2672 10.1428 15.4924 20.6752 15.4924C31.2075 15.4924 39.7457 19.2672 39.7457 23.9236ZM20.6024 11.7292C23.2218 11.7292 25.3453 9.60573 25.3453 6.98625C25.3453 4.36677 23.2218 2.24327 20.6024 2.24327C17.9829 2.24327 15.8594 4.36677 15.8594 6.98625C15.8594 9.60573 17.9829 11.7292 20.6024 11.7292Z" fill="white"/>
</svg>
