<svg width="307" height="295" viewBox="0 0 307 295" fill="none" xmlns="http://www.w3.org/2000/svg">
<path d="M0 2.05574C0 0.920383 0.95783 0 2.13937 0H304.861C306.042 0 307 0.92039 307 2.05575V292.944C307 294.08 306.042 295 304.861 295H2.13937C0.957823 295 0 294.08 0 292.944V2.05574Z" fill="black"/>
<path fill-rule="evenodd" clip-rule="evenodd" d="M215.983 266.165C246.264 266.165 270.81 241.619 270.81 211.338C270.81 181.058 246.264 156.511 215.983 156.511C185.703 156.511 161.156 181.058 161.156 211.338C161.156 241.619 185.703 266.165 215.983 266.165ZM215.983 273.634C250.388 273.634 278.279 245.743 278.279 211.338C278.279 176.933 250.388 149.042 215.983 149.042C181.578 149.042 153.688 176.933 153.688 211.338C153.688 245.743 181.578 273.634 215.983 273.634Z" fill="#629DDF"/>
<path fill-rule="evenodd" clip-rule="evenodd" d="M89.8857 140.068C120.166 140.068 144.713 115.521 144.713 85.2407C144.713 54.9606 120.166 30.4136 89.8857 30.4136C59.6056 30.4136 35.0587 54.9606 35.0587 85.2407C35.0587 115.521 59.6056 140.068 89.8857 140.068ZM89.8857 147.537C124.291 147.537 152.182 119.646 152.182 85.2407C152.182 50.8356 124.291 22.9448 89.8857 22.9448C55.4807 22.9448 27.5898 50.8356 27.5898 85.2407C27.5898 119.646 55.4807 147.537 89.8857 147.537Z" fill="#79767B"/>
<path fill-rule="evenodd" clip-rule="evenodd" d="M89.8857 266.165C120.166 266.165 144.713 241.619 144.713 211.338C144.713 181.058 120.166 156.511 89.8857 156.511C59.6056 156.511 35.0587 181.058 35.0587 211.338C35.0587 241.619 59.6056 266.165 89.8857 266.165ZM89.8857 273.634C124.291 273.634 152.182 245.743 152.182 211.338C152.182 176.933 124.291 149.042 89.8857 149.042C55.4807 149.042 27.5898 176.933 27.5898 211.338C27.5898 245.743 55.4807 273.634 89.8857 273.634Z" fill="#D5983B"/>
<path fill-rule="evenodd" clip-rule="evenodd" d="M215.983 140.068C246.264 140.068 270.81 115.521 270.81 85.2407C270.81 54.9606 246.264 30.4136 215.983 30.4136C185.703 30.4136 161.156 54.9606 161.156 85.2407C161.156 115.521 185.703 140.068 215.983 140.068ZM215.983 147.537C250.388 147.537 278.279 119.646 278.279 85.2407C278.279 50.8356 250.388 22.9448 215.983 22.9448C181.578 22.9448 153.688 50.8356 153.688 85.2407C153.688 119.646 181.578 147.537 215.983 147.537Z" fill="#3CB270"/>
<path d="M233.863 45.3408C233.863 33.1795 243.722 23.3208 255.883 23.3208V23.3208C268.045 23.3208 277.903 33.1795 277.903 45.3408V45.3408C277.903 57.5021 268.045 67.3608 255.883 67.3608V67.3608C243.722 67.3608 233.863 57.5021 233.863 45.3408V45.3408Z" fill="black"/>
<path d="M256.071 29.7197L260.24 40.9843L271.504 45.1525L260.24 49.3208L256.071 60.5854L251.903 49.3208L240.639 45.1525L251.903 40.9843L256.071 29.7197Z" fill="url(#paint0_linear)"/>
<defs>
<linearGradient id="paint0_linear" x1="256.071" y1="29.7197" x2="256.071" y2="60.5854" gradientUnits="userSpaceOnUse">
<stop stop-color="#FFEA29"/>
<stop offset="1" stop-color="#FF8A00"/>
</linearGradient>
</defs>
</svg>
